<?xml version="1.0" standalone="no"?>
<!DOCTYPE svg PUBLIC "-//W3C//DTD SVG 1.1//EN" "http://www.w3.org/Graphics/SVG/1.1/DTD/svg11.dtd" >
<svg xmlns="http://www.w3.org/2000/svg">
<metadata>
Created by FontForge 20120731 at Wed Jul  5 14:17:16 2017
 By admin
</metadata>
<defs>
<font id="iconfont" horiz-adv-x="1024" >
  <font-face 
    font-family="iconfont"
    font-weight="500"
    font-stretch="normal"
    units-per-em="1024"
    panose-1="2 0 6 3 0 0 0 0 0 0"
    ascent="896"
    descent="-128"
    x-height="792"
    bbox="0 -128 1024 896.252"
    underline-thickness="0"
    underline-position="0"
    unicode-range="U+0078-E719"
  />
<missing-glyph 
 />
    <glyph glyph-name=".notdef" 
 />
    <glyph glyph-name=".notdef" 
 />
    <glyph glyph-name=".null" horiz-adv-x="0" 
 />
    <glyph glyph-name="nonmarkingreturn" horiz-adv-x="341" 
 />
    <glyph glyph-name="x" unicode="x" horiz-adv-x="1001" 
d="M281 543q-27 -1 -53 -1h-83q-18 0 -36.5 -6t-32.5 -18.5t-23 -32t-9 -45.5v-76h912v41q0 16 -0.5 30t-0.5 18q0 13 -5 29t-17 29.5t-31.5 22.5t-49.5 9h-133v-97h-438v97zM955 310v-52q0 -23 0.5 -52t0.5 -58t-10.5 -47.5t-26 -30t-33 -16t-31.5 -4.5q-14 -1 -29.5 -0.5
t-29.5 0.5h-32l-45 128h-439l-44 -128h-29h-34q-20 0 -45 1q-25 0 -41 9.5t-25.5 23t-13.5 29.5t-4 30v167h911zM163 247q-12 0 -21 -8.5t-9 -21.5t9 -21.5t21 -8.5q13 0 22 8.5t9 21.5t-9 21.5t-22 8.5zM316 123q-8 -26 -14 -48q-5 -19 -10.5 -37t-7.5 -25t-3 -15t1 -14.5
t9.5 -10.5t21.5 -4h37h67h81h80h64h36q23 0 34 12t2 38q-5 13 -9.5 30.5t-9.5 34.5q-5 19 -11 39h-368zM336 498v228q0 11 2.5 23t10 21.5t20.5 15.5t34 6h188q31 0 51.5 -14.5t20.5 -52.5v-227h-327z" />
    <glyph glyph-name="jinru" unicode="&#xe6a1;" 
d="M654 71q-12 0 -20 8.5t-8 20t8 20.5l264 264l-264 264q-8 9 -8 20q0 12 8.5 20.5t20.5 8.5q11 0 19 -8l285 -285q8 -8 8 -20t-8 -20l-285 -285q-8 -8 -20 -8v0z" />
    <glyph glyph-name="dianhuabu" unicode="&#xe6a2;" 
d="M871 839h-661q-16 0 -27.5 -15t-11.5 -36v-808q0 -21 11.5 -36t27.5 -15h80q10 0 17 6.5t7 15.5t-7 15t-17 6h-72v824h445v-330q0 -7 5.5 -12t13.5 -5h30q8 0 13.5 5t5.5 12v330h130v-240v-4v-580h-432q-10 0 -17 -6t-7 -15t7 -15.5t17 -6.5h442q13 0 23 10t14 25l2 6
v818q0 21 -11.5 36t-27.5 15z" />
    <glyph glyph-name="jiaonangchahao" unicode="&#xe6a3;" 
d="M311 585l442 -442l-40 -41l-442 443zM753 545l-442 -443l-40 41l442 442z" />
    <glyph glyph-name="duanxin" unicode="&#xe6a4;" 
d="M905 668v0h-786h786v0zM512 197l-25 26l-87 85l-249 -257h723l-249 257l-87 -86zM114 596v-496l244 248zM910 100v496l-244 -248zM512 269l393 399h-785l392 -399v0z" />
    <glyph glyph-name="gerenxinxi" unicode="&#xe6a5;" 
d="M774 279q17 0 23 5.5t6 22.5q0 15 -19 30l-2 1q-60 44 -104 61q37 30 58.5 73t21.5 92q0 90 -67 154t-161.5 64t-161.5 -64t-67 -154q0 -49 21 -92t59 -73q-119 -44 -193 -144.5t-74 -225.5v0q0 -38 33 -38q15 0 19.5 9t4.5 28q0 68 22 127.5t64 107.5t112.5 75.5
t159.5 25.5q57 0 117.5 -19.5t99.5 -51.5q13 -11 25 -14h3zM529 407q-83 0 -128.5 47t-45.5 110t48.5 114.5t126.5 51.5q45 0 80.5 -15t55 -40t29.5 -53.5t10 -58.5q0 -60 -51.5 -109t-124.5 -47zM605 174q0 -16 12 -24t30 -8h222q18 0 29.5 8t11.5 24q0 30 -41 30h-222
q-42 0 -42 -30v0zM869 45h-222q-42 0 -42 -29q0 -30 42 -30h222q41 0 41 30q0 29 -41 29v0z" />
    <glyph glyph-name="beizhu" unicode="&#xe6a6;" 
d="M208 156v-1h1h1v0q2 0 4 1l177 32v0q10 2 17 9l390 390q9 10 9 23.5t-9 22.5l-126 126q-10 10 -23.5 10t-22.5 -10l-390 -390q-7 -7 -9 -17v0l-24 -165v0v-1l-3 -17v-4q0 -8 8 -9v0zM264 353l375 375q4 5 11 5t12 -5l105 -105q5 -5 5 -12t-5 -12l-374 -375q-5 -4 -12 -4
t-12 4l-105 106q-5 5 -5 11.5t5 11.5v0zM203 118h681v-51h-681v51z" />
    <glyph glyph-name="liebiaoshoufei" unicode="&#xe6a7;" 
d="M781 558l41 41q13 13 22 34.5t9 39.5t-9 39.5t-22 33.5q-35 35 -95 35q-45 0 -70 -25h-44q-7 34 -36.5 58.5t-64.5 24.5q-37 0 -65.5 -23.5t-35.5 -59.5h-44q-25 25 -72 25q-58 0 -93 -35q-30 -31 -30.5 -73t30.5 -74l41 -41q-85 -68 -135.5 -169t-50.5 -212
q0 -40 7.5 -73t19 -57.5t33.5 -43t41.5 -31t54 -21t59.5 -13t69.5 -6.5t72.5 -2.5t79 -0.5h38q51 0 79 0.5t72.5 2.5t69.5 6.5t59.5 13t54 21t41.5 31t33.5 43t19 57.5t7.5 73q0 111 -50.5 212t-135.5 169v0zM531 -30h-35q-77 0 -121.5 1.5t-97 8t-80 20t-53 36t-36 57.5
t-10.5 84q1 89 51 191t121 157l4 4h73q9 0 14.5 5.5t5.5 15t-5.5 15t-14.5 5.5h-56l-17 17l-41 41q-9 8 -15 21t-6 25q0 25 19 43q22 23 64 23q27 0 45 -15l11 -10h78q8 1 14 7t7 14q0 26 18 44t44 18t44 -18t18 -44q0 -8 6.5 -14.5t14.5 -6.5h78l13 12q14 15 41 15
q40 0 66 -23q19 -18 19 -44t-19 -43l-41 -41l-19 -21h-55q-10 0 -15.5 -5.5t-5.5 -15t5.5 -15t15.5 -5.5h72l4 -4q71 -55 121 -157t51 -191q0 -49 -10 -84t-36 -57.5t-53.5 -36t-79.5 -20t-96 -8t-120 -1.5v0zM632 454q6 6 6 14.5t-6 14.5t-14 7q-9 -1 -15 -7l-87 -87
q-1 -1 -2 -3t-2 -3q0 2 -4 6l-87 87q-6 6 -15 6v0q-8 0 -14 -6t-6 -14.5t6 -14.5l87 -86q1 -2 3 -3t3 -2h-76q-10 0 -15.5 -5.5t-5.5 -15t5.5 -15t15.5 -5.5h82v-41h-82q-10 0 -15.5 -6t-5.5 -15t5.5 -15t15.5 -6h82v-83q0 -9 6 -14.5t15 -5.5t15 5.5t6 14.5v83h82
q10 0 15.5 6t5.5 15t-5.5 15t-15.5 6h-82v41h82q10 0 15.5 5.5t5.5 15t-5.5 15t-15.5 5.5h-76q2 0 6 4l87 87v0z" />
    <glyph glyph-name="qianfeihuanzhehoubiaoqian" unicode="&#xe6a8;" 
d="M512 -43q-116 0 -214 57.5t-155.5 155.5t-57.5 214t57.5 214t155.5 155.5t214 57.5t214 -57.5t155.5 -155.5t57.5 -214t-57.5 -214t-155.5 -155.5t-214 -57.5zM413 505h269q-6 -30 -22.5 -68.5t-34.5 -62.5l30 -28q54 65 69 169v29h-296q12 36 22 83l-41 6
q-28 -158 -128 -243l25 -33q67 53 107 148zM493 468q0 -113 -36 -185q-48 -87 -194 -143l28 -34q163 67 208 169q10 23 17 43q62 -141 232 -213l23 36q-191 77 -241 242q6 43 6 85h-43z" />
    <glyph glyph-name="menzhenshoufei" unicode="&#xe6a9;" 
d="M512 782q108 0 199.5 -53.5t145 -145t53.5 -199.5t-53.5 -199.5t-145 -145t-199.5 -53.5t-199.5 53.5t-145 145t-53.5 199.5t53.5 199.5t145 145t199.5 53.5zM656 407h-53l82 113q11 10 11 29q-9 46 -50 49q-27 -4 -37 -21l-97 -136l-95 136q-10 17 -39 21
q-46 -4 -50 -49q0 -16 11 -27l84 -113h-55q-28 -4 -32 -29q4 -24 32 -28h97v-45h-97q-28 -4 -32 -29q4 -25 32 -29h94v-79q4 -44 50 -44q47 0 47 42v79h97q28 4 32 28q-4 25 -32 29h-97v45h97q28 4 32 29q-4 25 -32 29z" />
    <glyph glyph-name="rili" unicode="&#xe6aa;" 
d="M721 100h37q16 0 27 8t11 20t-11 20t-27 8h-37q-16 0 -27 -8t-11 -20t11 -20t27 -8zM721 270h37q16 0 27 8.5t11 20t-11 20t-27 8.5h-37q-16 0 -27 -8.5t-11 -20t11 -20t27 -8.5zM494 270h36q16 0 27.5 8.5t11.5 20t-11.5 20t-27.5 8.5h-36q-16 0 -27.5 -8.5t-11.5 -20
t11.5 -20t27.5 -8.5zM266 270h37q16 0 27 8.5t11 20t-11 20t-27 8.5h-37q-16 0 -27 -8.5t-11 -20t11 -20t27 -8.5zM494 100h36q16 0 27.5 8t11.5 20t-11.5 20t-27.5 8h-36q-16 0 -27.5 -8t-11.5 -20t11.5 -20t27.5 -8zM266 100h37q16 0 27 8t11 20t-11 20t-27 8h-37
q-16 0 -27 -8t-11 -20t11 -20t27 -8zM800 728h-58v81q0 12 -8 20t-20 8q-10 0 -18 -7.5t-9 -17.5v-84h-347v81l1 3q-1 11 -9 18.5t-19 7.5t-19 -7.5t-9 -18.5v-84h-61q-72 0 -119.5 -49.5t-47.5 -138.5v-441q0 -66 44 -114.5t108 -54.5l591 -1q69 0 118 50t49 120v459
q0 71 -49 120.5t-118 49.5v0zM910 82q0 -40 -30 -68t-72 -28h-592q-42 0 -72 28t-30 68v359h796v-359v0zM910 573v-75h-796v75q0 37 31 66t83 29h57v-85q0 -11 8 -19t20 -8q11 0 19 8.5t8 19.5v2v82h346v-85q1 -11 9 -19t19 -8q12 0 20 8.5t8 19.5v2v82h54q45 0 81.5 -28
t32.5 -67v0z" />
    <glyph glyph-name="shaixuan2" unicode="&#xe6ab;" 
d="M854 707q15 22 15 49q0 25 -13 46q-28 47 -86 47h-625q-58 0 -86 -47q-12 -21 -12 -46q0 -27 15 -49q1 -2 2 -3l205 -229q20 -23 20 -52v-311q0 -12 9 -20.5t21.5 -8.5t21.5 8.5t9 20.5v311q0 50 -34 89l-204 227q-4 8 -4 17.5t4 17.5q5 7 14.5 12.5t18.5 5.5v0h625
q22 0 33 -18q5 -8 5 -17.5t-5 -17.5l-203 -227q-14 -16 -24.5 -42t-10.5 -47v-476q0 -12 9 -20t21.5 -8t21.5 8t9 20v476q0 29 20 52l205 229q2 1 3 3v0zM701 425q0 -12 9 -20.5t21 -8.5h216q13 0 21.5 8.5t8.5 20.5t-8.5 20t-21.5 8h-216q-12 0 -21 -8t-9 -20v0zM947 137
h-216q-12 0 -21 -8t-9 -20t9 -20.5t21 -8.5h216q13 0 21.5 8.5t8.5 20.5t-8.5 20t-21.5 8zM947 295h-216q-12 0 -21 -8t-9 -20t9 -20.5t21 -8.5h216q13 0 21.5 8.5t8.5 20.5t-8.5 20t-21.5 8z" />
    <glyph glyph-name="tianjia" unicode="&#xe6ac;" 
d="M512 -100q-98 0 -187.5 38.5t-154.5 103.5t-103.5 154.5t-38.5 187.5t38.5 187.5t103.5 154.5t154.5 103.5t187.5 38.5t187.5 -38.5t154.5 -103.5t103.5 -154.5t38.5 -187.5t-38.5 -187.5t-103.5 -154.5t-154.5 -103.5t-187.5 -38.5zM512 811q-116 0 -214 -57.5
t-155.5 -155.5t-57.5 -214t57.5 -214t155.5 -155.5t214 -57.5t214 57.5t155.5 155.5t57.5 214t-57.5 214t-155.5 155.5t-214 57.5zM540 555v-399q0 -11 -8 -19.5t-20 -8.5t-20 8.5t-8 19.5v399q0 11 8 19.5t20 8.5t20 -8.5t8 -19.5zM711 327h-398q-12 0 -20.5 8.5t-8.5 20
t8.5 20t20.5 8.5h398q12 0 20.5 -8.5t8.5 -20t-8.5 -20t-20.5 -8.5z" />
    <glyph glyph-name="shanchu" unicode="&#xe6ad;" 
d="M943 670h-237v114v0q0 23 -16.5 39t-38.5 16h-1h-280q-22 0 -38.5 -16.5t-16.5 -38.5v-114h-238q-9 0 -14.5 -8t-5.5 -18t6.5 -16.5t16.5 -6.5h101v-10l3 -625q0 -24 16.5 -40t39.5 -16h563q22 0 39 17t17 39l-7 625v7h91q23 5 23 26q0 10 -6.5 18t-16.5 8zM364 784
q0 6 6 6h280q7 0 7 -10v-114h-293v118zM803 611l7 -625q-1 -6 -7 -7h-563q-7 0 -7 10l-6 622q0 7 6 7h564q2 2 4 0t2 -7zM657 464v-332q0 -10 6.5 -16.5t16 -6.5t16 6.5t6.5 16.5v332q0 10 -6.5 16.5t-15.5 6.5q-8 0 -15.5 -6.5t-7.5 -16.5zM510 487q-10 0 -16.5 -6.5
t-6.5 -16.5v-332q0 -10 6.5 -16.5t16.5 -6.5t16.5 6.5t6.5 16.5v332q2 10 -5.5 16.5t-17.5 6.5v0zM350 487q-9 0 -15.5 -6.5t-6.5 -16.5v-332q0 -10 6.5 -16.5t16 -6.5t16 6.5t6.5 16.5v332q3 10 -4.5 16.5t-18.5 6.5v0z" />
    <glyph glyph-name="shouye" unicode="&#xe6ae;" 
d="M901 405l-349 303q-17 17 -40 17t-39 -16l-350 -304q-9 -9 -9 -23t9.5 -23.5t23.5 -9.5h55v-272q0 -28 19.5 -47t47.5 -19h158v3v171q0 24 16.5 40.5t40.5 16.5h85q23 0 40 -16.5t17 -40.5v-171v-3h129q28 0 47.5 19t19.5 47v272h55q14 0 23.5 9.5t9.5 23.5q0 13 -9 23v0
z" />
    <glyph glyph-name="shoufeijilu" unicode="&#xe6af;" 
d="M314 526h302q12 0 20.5 8.5t8.5 20t-8.5 20t-20.5 8.5h-302q-12 0 -20.5 -8.5t-8.5 -20t8.5 -20t20.5 -8.5zM616 413h-302q-12 0 -20.5 -8.5t-8.5 -20.5t8.5 -20t20.5 -8h302q12 0 20.5 8t8.5 20t-8.5 20.5t-20.5 8.5zM616 242h-302q-12 0 -20.5 -8.5t-8.5 -20t8.5 -20
t20.5 -8.5h302q12 0 20.5 8.5t8.5 20t-8.5 20t-20.5 8.5zM430 697h47v0q17 0 29.5 12.5t12.5 30t-12.5 30t-29.5 12.5v0h-47q-18 0 -30.5 -12.5t-12.5 -30t12.5 -30t30.5 -12.5zM702 754h-29q-11 0 -19.5 -8.5t-8.5 -20t8.5 -20t19.5 -8.5h29q23 0 40 -16.5t17 -40.5v-540
q0 -24 -17 -40.5t-40 -16.5h-474q-23 0 -39.5 16.5t-16.5 40.5v540q0 24 16.5 40.5t39.5 16.5h29q12 0 20 8.5t8 20t-8 20t-20 8.5h-29q-47 0 -80 -33.5t-33 -80.5v-540q0 -48 33 -81t80 -33h474v0q47 0 80.5 33t33.5 81v540q0 47 -33.5 80.5t-80.5 33.5z" />
    <glyph glyph-name="weixuanzhong" unicode="&#xe6b0;" 
d="M114 612v-456q0 -70 50 -120t120 -50h456q70 0 120 50t50 120v456q0 70 -50 120t-120 50h-456q-70 0 -120 -50t-50 -120zM57 612q0 94 66.5 160.5t160.5 66.5h456v0q94 0 160.5 -66.5t66.5 -160.5v-456q0 -94 -66.5 -160.5t-160.5 -66.5v0h-456q-94 0 -160.5 66.5
t-66.5 160.5v0v456z" />
    <glyph glyph-name="tishixinxi" unicode="&#xe6b1;" 
d="M512 782q-108 0 -200 -53t-145 -145t-53 -200t53 -200t145 -145t200 -53t200 53t145 145t53 200t-53 200t-145 145t-200 53zM545 616l-8 -370h-52l-8 370h68zM542 103q-12 -12 -30 -12t-30.5 12.5t-12.5 30.5q0 17 12.5 29.5t30.5 12.5t30.5 -12.5t12.5 -29.5v-1
q0 -18 -13 -30v0z" />
    <glyph glyph-name="xiala" unicode="&#xe6b2;" 
d="M512 14q-100 0 -185.5 49.5t-135 135t-49.5 185.5t49.5 185.5t135 135t185.5 49.5t185.5 -49.5t135 -135t49.5 -185.5t-49.5 -185.5t-135 -135t-185.5 -49.5zM511.5 697q-129.5 0 -221 -91.5t-91.5 -221t92 -221.5t221 -92t221 92t92 221t-92 221t-221.5 92zM508 242
q-12 0 -20 8l-167 163q-8 8 -8 20t8.5 20t20 8t19.5 -8l147 -143l155 151q8 8 19 8q12 0 20.5 -8.5t8.5 -20t-8 -19.5l-175 -171q-8 -8 -20 -8z" />
    <glyph glyph-name="weixuanzhongkuang" unicode="&#xe6b3;" 
d="M146 750v-732h732v732h-732zM73 823h878v-878h-878v878z" />
    <glyph glyph-name="weixuanzhongdian" unicode="&#xe6b4;" 
d="M512 -85q-95 0 -182 37t-150 100t-100 150t-37 182t37 182t100 150t150 100t182 37t182 -37t150 -100t100 -150t37 -182t-37 -182t-100 -150t-150 -100t-182 -37zM512 768q-159 0 -271.5 -112.5t-112.5 -271.5t112.5 -271.5t271.5 -112.5t271.5 112.5t112.5 271.5
t-112.5 271.5t-271.5 112.5z" />
    <glyph glyph-name="xialasanjiao" unicode="&#xe6b5;" 
d="M512 242l171 256h-342z" />
    <glyph glyph-name="xuanzhongdian" unicode="&#xe6b6;" 
d="M512 -85q-95 0 -182 37t-150 100t-100 150t-37 182t37 182t100 150t150 100t182 37t182 -37t150 -100t100 -150t37 -182t-37 -182t-100 -150t-150 -100t-182 -37zM512 768q-159 0 -271.5 -112.5t-112.5 -271.5t112.5 -271.5t271.5 -112.5t271.5 112.5t112.5 271.5
t-112.5 271.5t-271.5 112.5zM341 384v0q0 -71 50 -121t121 -50t121 50t50 121v0q0 71 -50 121t-121 50t-121 -50t-50 -121z" />
    <glyph glyph-name="xiugai" unicode="&#xe6b8;" 
d="M885 -71h-745q-34 0 -58.5 24t-24.5 59v743q0 34 24.5 59t58.5 25h497q12 0 20 -8t8 -19.5t-8 -19.5t-20 -8h-469v0q-23 0 -39 -16t-16 -38v0v-689q0 -23 16 -39t39 -16h690v0q22 0 38 16t16 39v0v494q0 12 8 20t19.5 8t19.5 -8t8 -20v-523q1 -35 -23 -59t-59 -24z
M435 294q-8 -8 -19.5 -8t-19.5 8q-8 9 -8 20t8 20l495 497q8 8 19.5 8t20.5 -8q8 -8 8 -19.5t-8 -19.5z" />
    <glyph glyph-name="zhankai" unicode="&#xe6b9;" 
d="M540 213v0q-11 0 -20 9l-284 284q-8 8 -8 20t8.5 20t19.5 8q12 0 20 -8l264 -264l265 264q8 8 20 8q11 0 19.5 -8t8.5 -20t-8 -20l-284 -284q-9 -9 -21 -9v0z" />
    <glyph glyph-name="xiangqingshoufei" unicode="&#xe6ba;" 
d="M747 536l37 36q11 11 19 30t8 34.5t-8 34.5t-19 30q-31 31 -84 31q-40 0 -61 -22h-38q-7 30 -33 51t-56 21q-31 0 -57 -21t-32 -51h-38q-21 22 -63 22q-51 0 -82 -31q-26 -28 -26 -64.5t26 -64.5l37 -36q-75 -59 -119 -147.5t-44 -185.5q0 -40 7 -71.5t23.5 -53.5
t33.5 -38.5t48.5 -26t54.5 -15.5t66 -8.5t70.5 -3t78.5 -0.5h32q51 0 78.5 0.5t70.5 3t66 8.5t54.5 15.5t48.5 26t33.5 38.5t23.5 53.5t7 71.5q0 97 -44 185.5t-119 147.5zM528 22h-30q-45 0 -73 0.5t-63 2.5t-56.5 5.5t-46.5 10t-39.5 15.5t-29.5 22.5t-22.5 31.5t-12.5 41
t-5 52q0 78 44 167t106 137l4 4h63q8 0 13 5t5 13t-5 13t-13 5h-49l-14 14l-36 37q-18 15 -18 39q0 23 16 38q20 20 56 20q24 0 40 -12l9 -9h69q6 0 12 5.5t6 12.5q0 23 15.5 38.5t38.5 15.5t38.5 -15.5t15.5 -38.5q0 -7 6 -12.5t12 -5.5h69l11 10q13 13 36 13q35 0 58 -20
q16 -16 16 -38.5t-16 -37.5l-36 -36l-16 -18h-49q-8 0 -13 -5t-5 -13t5 -13t13 -5h63l4 -4q62 -48 106 -137t44 -167q0 -29 -5 -52t-12.5 -41t-22.5 -31.5t-29.5 -22.5t-39.5 -15.5t-46.5 -10t-56 -5.5t-62.5 -2.5t-72 -0.5zM617 446q5 5 5 12.5t-5 12.5t-13 5q-7 0 -12 -5
l-76 -76q-1 -1 -2 -3t-2 -3q0 2 -4 6l-76 76q-5 5 -12 5h-1q-7 0 -12 -5t-5 -12.5t5 -12.5l76 -77q1 0 2.5 -1t2.5 -2h-66q-9 0 -14 -5t-5 -13t5 -13t14 -5h72v-37h-73q-8 0 -13 -4.5t-5 -13t5 -13.5t13 -5h73v-72q0 -8 5 -13t13 -5t13 5t5 13v72h73q8 0 13 5t5 13.5t-5 13
t-13 4.5h-73v37h73q8 0 13 5t5 13t-5 13t-13 5h-67q1 0 5 3z" />
    <glyph glyph-name="yuyueguanli" unicode="&#xe6bb;" 
d="M794 666q-48 48 -130.5 82t-150.5 34h-1q-80 0 -152.5 -30t-129.5 -86q-48 -48 -82 -130.5t-34 -150.5v-1q0 -80 30 -152.5t86 -129.5q48 -48 130.5 -82t150.5 -34h1q80 0 152.5 30t129.5 86q76 77 103 179.5t0 205t-103 179.5zM699 241q-6 -12 -18 -15.5t-24 3.5
l-137 83q-13 7 -15 10q-25 15 -25 29v232q1 13 10.5 22.5t23 9.5t23 -9.5t10.5 -22.5v-217l137 -80q13 -7 17.5 -20t-2.5 -25z" />
    <glyph glyph-name="zhongyao" unicode="&#xe6bc;" 
d="M512 -71q-93 0 -177 36t-145 97t-97 145t-36 177t36 177t97 145t145 97t177 36t177 -36t145 -97t97 -145t36 -177t-36 -177t-97 -145t-145 -97t-177 -36zM512 197l176 -97l-34 205l142 146l-196 30l-88 187l-88 -187l-196 -30l142 -146l-34 -205z" />
    <glyph glyph-name="zhongdianhuanzhehoubiaoqian" unicode="&#xe6bd;" 
d="M512 -43q-116 0 -214 57.5t-155.5 155.5t-57.5 214t57.5 214t155.5 155.5t214 57.5t214 -57.5t155.5 -155.5t57.5 -214t-57.5 -214t-155.5 -155.5t-214 -57.5zM512 242l167 -88l-32 186l136 132l-187 27l-84 169l-84 -169l-187 -27l136 -132l-32 -186z" />
    <glyph glyph-name="xialajiantouxiangshang" unicode="&#xe6be;" 
d="M512 14q-100 0 -185.5 49.5t-135 135t-49.5 185.5t49.5 185.5t135 135t185.5 49.5t185.5 -49.5t135 -135t49.5 -185.5t-49.5 -185.5t-135 -135t-185.5 -49.5zM512 71q130 0 221.5 91.5t91.5 221.5t-91.5 221.5t-221.5 91.5t-221.5 -91.5t-91.5 -221.5t91.5 -221.5
t221.5 -91.5zM361 258q-8 -8 -19.5 -8t-20 8t-8.5 20t8 20l167 163q8 8 20 8t20 -8l175 -170q8 -9 8 -21t-8 -20t-20 -8t-20 8l-155 151l-147 -143v0z" />
    <glyph glyph-name="xuanzhong" unicode="&#xe6bf;" 
d="M57 612v0q0 94 66.5 160.5t160.5 66.5h456v0q94 0 160.5 -66.5t66.5 -160.5v-456q0 -94 -66.5 -160.5t-160.5 -66.5h-456q-94 0 -160.5 66.5t-66.5 160.5v456zM304 419q-8 7 -19 7q-12 0 -20 -8.5t-8 -19.5q0 -12 8 -21l157 -142q8 -7 19 -7q12 0 20 8l285 299q7 8 7 19
q0 12 -8.5 20t-20 8t-19.5 -8l-266 -278z" />
    <glyph glyph-name="xiangshang" unicode="&#xe6c0;" 
d="M306 414q8 -8 19 -8t18 8l143 146v-469q0 -11 7.5 -19t18.5 -8t18.5 8t7.5 19v469l143 -146q7 -8 18 -8t18.5 8t7.5 19t-7 19l-188 191q-7 8 -18 8t-18 -8l-188 -191q-7 -8 -7 -19t7 -19v0zM512 -69q-92 0 -176 35.5t-145 96.5t-96.5 145t-35.5 176t35.5 176t96.5 145
t145 96.5t176 35.5t176 -35.5t145 -96.5t96.5 -145t35.5 -176t-35.5 -176t-96.5 -145t-145 -96.5t-176 -35.5zM512 -16q166 0 283 117t117 283t-117 283t-283 117t-283 -117t-117 -283t117 -283t283 -117z" />
    <glyph glyph-name="xiangxia" unicode="&#xe6c1;" 
d="M718 354q-8 8 -19 8t-18 -8l-143 -146v469q0 11 -7.5 19t-18.5 8t-18.5 -8t-7.5 -19v-469l-143 146q-7 8 -18 8t-18.5 -8t-7.5 -19t7 -19l188 -191q7 -8 18 -8t18 8l188 191q7 8 7 19t-7 19v0zM512 -69q-92 0 -176 35.5t-145 96.5t-96.5 145t-35.5 176t35.5 176t96.5 145
t145 96.5t176 35.5t176 -35.5t145 -96.5t96.5 -145t35.5 -176t-35.5 -176t-96.5 -145t-145 -96.5t-176 -35.5zM512 -16q166 0 283 117t117 283t-117 283t-283 117t-283 -117t-117 -283t117 -283t283 -117z" />
    <glyph glyph-name="zhiding" unicode="&#xe6c2;" 
d="M512 839q-93 0 -177 -36t-145 -97t-97 -145t-36 -177t36 -177t97 -145t145 -97t177 -36t177 36t145 97t97 145t36 177t-36 177t-97 145t-145 97t-177 36zM512 -14q-108 0 -200 53t-145 145t-53 200t53 200t145 145t200 53t200 -53t145 -145t53 -200t-53 -200t-145 -145
t-200 -53zM523 576q-6 6 -13 8q-4 2 -8 2h-1.5h-1t-5.5 -1l-5 -1q-7 -2 -13 -8l-156 -156q-10 -9 -10.5 -21.5t7.5 -21.5q8 -7 20 -7q13 0 23 10l113 113v-335q0 -11 7.5 -19t19 -8t19 8t7.5 19v334l113 -112q10 -10 23 -10h1q11 0 19 7q8 9 7.5 21.5t-10.5 21.5l-156 156v0
zM360 687h267v-57h-267v57z" />
    <glyph glyph-name="zhidi" unicode="&#xe6c3;" 
d="M512 -71q-93 0 -177 36t-145 97t-97 145t-36 177t36 177t97 145t145 97t177 36t177 -36t145 -97t97 -145t36 -177t-36 -177t-97 -145t-145 -97t-177 -36zM512 782q-108 0 -200 -53t-145 -145t-53 -200t53 -200t145 -145t200 -53t200 53t145 145t53 200t-53 200t-145 145
t-200 53zM523 192q-6 -6 -13 -8q-4 -2 -8 -2h-1.5h-1t-5.5 1l-5 1q-7 2 -13 8l-156 156q-10 9 -10.5 21.5t7.5 21.5q8 7 19 7h1q13 0 23 -10l113 -113v335q0 11 7.5 19t19 8t19 -8t7.5 -19v-334l113 112q10 10 23 10q12 0 20 -7q8 -9 7.5 -21.5t-10.5 -21.5l-156 -156v0z
M360 81h267v57h-267v-57z" />
    <glyph glyph-name="fangda" unicode="&#xe6c4;" 
d="M956 -60q-10 -10 -24.5 -10t-24.5 10l-221 221q-108 -90 -245 -90q-104 0 -192.5 51t-140 139.5t-51.5 193t51.5 193t140 140t193 51.5t193 -51.5t139.5 -140t51 -192.5q0 -137 -90 -245l221 -221q10 -10 10 -24.5t-10 -24.5zM756 455q0 130 -92.5 222t-222.5 92
t-222 -92t-92 -222t92 -222.5t222 -92.5q69 0 129.5 28t100 72.5t62.5 100.5t23 114zM581 420h-105v-105q0 -14 -10 -24.5t-24.5 -10.5t-25 10.5t-10.5 24.5v105h-105q-14 0 -24 10t-10 24.5t10 25t24 10.5h105v105q0 14 10.5 24t25 10t24.5 -10t10 -24v-105h105v0
q14 0 24.5 -10.5t10.5 -25t-10.5 -24.5t-24.5 -10v0v0z" />
    <glyph glyph-name="daochu" unicode="&#xe6c5;" 
d="M469 213v640q0 18 12.5 30.5t30.5 12.5t30.5 -12.5t12.5 -30.5v-640q0 -17 -12.5 -29.5t-30.5 -12.5t-30.5 12.5t-12.5 29.5zM226 628l256 256q12 12 30 12t30.5 -12.5t12.5 -30t-13 -30.5l-255 -255q-13 -13 -30.5 -13t-30 12.5t-12.5 30t12 30.5zM542 884l256 -256
q12 -13 12 -30.5t-12.5 -30t-30 -12.5t-30.5 13l-255 255q-13 13 -13 30.5t12.5 30t30.5 12.5t30 -12v0zM896 -128h-768q-53 0 -90.5 37.5t-37.5 90.5v256q0 18 12.5 30.5t30 12.5t30 -12.5t12.5 -30.5v-256q0 -18 12.5 -30.5t30.5 -12.5h768q18 0 30.5 12.5t12.5 30.5v256
q0 18 12.5 30.5t30 12.5t30 -12.5t12.5 -30.5v-256q0 -53 -37.5 -90.5t-90.5 -37.5v0z" />
    <glyph glyph-name="nv" unicode="&#xe6c6;" 
d="M314 498q1 87 63 148t149 61t148.5 -61t63.5 -148q0 -79 -52.5 -138.5t-129.5 -70.5l-1 -36h85q12 0 20.5 -8.5t8.5 -20.5t-8.5 -20.5t-20.5 -8.5h-85v-108q0 -12 -8.5 -20.5t-20.5 -8.5t-21 8.5t-9 20.5v108h-84q-13 0 -21.5 8.5t-8.5 20.5t8.5 20.5t21.5 8.5h85v36
q-79 11 -131 70.5t-52 138.5v0zM725 498q-1 82 -59.5 139t-140 57t-139.5 -57t-60 -139q1 -76 51.5 -132t125.5 -65l6 -6v-48l-6 -7h-92q-6 0 -11 -4.5t-5 -11.5t5 -11.5t11 -4.5h92l6 -7v-114q1 -7 5.5 -11.5t11 -4.5t11.5 4.5t5 11.5v114l7 7h91q7 0 11.5 4.5t4.5 11.5
t-4.5 11.5t-11.5 4.5h-91l-7 7v48l6 6q75 9 126 65t51 132zM372 498q0 -63 45 -108t108.5 -45t108.5 45t45 108.5t-45 108.5t-108.5 45t-108.5 -45t-45 -109v0zM731 498q0 -78 -52.5 -136t-129.5 -67l-1 -48h92q9 0 16 -6.5t7 -16t-7 -16.5t-16 -7h-91v-114q0 -10 -7 -16.5
t-16.5 -6.5t-16 6.5t-6.5 16.5v114h-91q-10 0 -16.5 7t-6.5 16t6.5 16t16.5 7h91v48q-78 8 -130.5 66.5t-52.5 136.5q2 84 62 143t144 59t144 -58.5t61 -142.5v-1z" />
    <glyph glyph-name="bingqingxinxi" unicode="&#xe6c7;" 
d="M281 285q-10 0 -17.5 -7.5t-7.5 -18t7.5 -17.5t17.5 -7t17.5 7t7.5 17.5t-7.5 18t-17.5 7.5zM281 533q10 0 17.5 7.5t7.5 17.5t-7.5 17.5t-17.5 7.5t-17.5 -7.5t-7.5 -17.5t7.5 -17.5t17.5 -7.5zM281 434q-10 0 -17.5 -7.5t-7.5 -17.5t7.5 -17.5t17.5 -7.5t17.5 7.5
t7.5 17.5t-7.5 17.5t-17.5 7.5zM654 383v51h-249v-51h249zM214 782q-42 0 -71 -29.5t-29 -70.5v-546q0 -42 29 -71t71 -29h539q41 0 70 29t29 71v546q0 41 -29 70.5t-70 29.5h-539zM803 136v0q0 -21 -14.5 -35.5t-35.5 -14.5h-539q-21 0 -35.5 14.5t-14.5 35.5v546
q0 21 14.5 35.5t35.5 14.5h539q21 0 35.5 -14.5t14.5 -35.5v-546v0zM405 533h249v50h-249v-50zM405 235h249v50h-249v-50z" />
    <glyph glyph-name="nan" unicode="&#xe6c8;" 
d="M735 527v0v1l-42 156v0q-6 19 -27 19h-6v0l-157 -42q-21 -6 -21 -28q0 -11 8.5 -19.5t19.5 -8.5q4 0 8 1v0l89 24l-80 -139q-34 14 -73 14q-27 0 -52 -7q-64 -18 -105 -71t-41 -120q0 -82 58 -140t140 -58t140 58t58 140q0 27 -7 52q-20 75 -86 115l97 128l24 -89l1 -1v0
q5 -21 27 -21q12 0 20 8.5t8 19.5q0 4 -1 8v0zM591 343q5 -17 5 -36q0 -59 -41.5 -100.5t-100.5 -41.5q-48 0 -86 29.5t-50 74.5q-5 18 -5 38q0 58 41.5 99.5t99.5 41.5q49 0 86.5 -29t50.5 -75v-1z" />
    <glyph glyph-name="suoxiao" unicode="&#xe6c9;" 
d="M956 -60q-10 -10 -24.5 -10t-24.5 10l-221 221q-108 -90 -245 -90q-104 0 -192.5 51t-140 139.5t-51.5 193t51.5 193t140 140t193 51.5t193 -51.5t139.5 -140t51 -192.5q0 -137 -90 -245l221 -221q10 -10 10 -24.5t-10 -24.5zM756 455q0 130 -92.5 222t-222.5 92
t-222 -92t-92 -222t92 -222.5t222 -92.5q69 0 129.5 28t100 72.5t62.5 100.5t23 114zM581 420h-280v0q-14 0 -24.5 10t-10.5 24.5t10.5 25t24.5 10.5v0h280v0q14 0 24.5 -10.5t10.5 -25t-10.5 -24.5t-24.5 -10v0v0z" />
    <glyph glyph-name="quchixiufu" unicode="&#xe6ca;" 
d="M514 249h-118v275h118l127 -2v-137q0 -7 4.5 -11.5t11 -4.5t11 4.5t4.5 11.5v152v0q0 7 -4.5 11t-10.5 5l-142 2h-134q-6 0 -10.5 -4.5t-4.5 -11.5v-305q0 -6 4.5 -10.5t10.5 -4.5h133q7 0 11.5 4.5t4.5 10.5t-4.5 10.5t-11.5 4.5v0zM670 239l-57 57q7 13 7 29
q-1 25 -12 36q-4 4 -10.5 4t-11 -4.5t-4.5 -10.5t4 -10q4 -6 3 -16q0 -13 -6 -19t-18 -7q-11 0 -16 2q-4 5 -10 5t-10.5 -4.5t-4.5 -11.5q0 -6 4 -10q11 -11 34 -11h2q15 0 28 7l57 -57q4 -5 10.5 -5t11 4.5t4.5 11t-5 10.5v0zM599 496h-152q-7 0 -11.5 -4.5t-4.5 -11
t4.5 -11t11.5 -4.5h152q7 0 11 4.5t4 11t-4 11t-11 4.5zM614 423v0q0 7 -4 11t-11 4h-152q-7 0 -11.5 -4t-4.5 -10.5t4.5 -11t11.5 -4.5h152v0q7 0 11 4.5t4 10.5zM447 381q-7 0 -11.5 -4.5t-4.5 -10.5t4.5 -10.5t11.5 -4.5h76q6 0 10.5 4.5t4.5 10.5t-4.5 10.5t-10.5 4.5
h-76zM512 -116q-102 0 -194.5 39.5t-159.5 106.5t-106.5 159.5t-39.5 194.5t39.5 194.5t106.5 159.5t159.5 106.5t194.5 39.5t194.5 -39.5t159.5 -106.5t106.5 -159.5t39.5 -194.5t-39.5 -194.5t-106.5 -159.5t-159.5 -106.5t-194.5 -39.5zM512 -91q97 0 185 37.5t151.5 101
t101 151.5t37.5 185t-37.5 185t-101 151.5t-151.5 101t-185 37.5t-185 -37.5t-151.5 -101t-101 -151.5t-37.5 -185t37.5 -185t101 -151.5t151.5 -101t185 -37.5z" />
    <glyph glyph-name="guominshi" unicode="&#xe6cb;" 
d="M483 725q45 0 77 -29q21 -20 29 -47h88q6 0 11 -4.5t5 -10.5v-14h76q11 0 19 -7.5t8 -18.5v-517q0 -10 -8 -17.5t-19 -7.5h-571q-11 0 -19 7.5t-8 17.5v517q0 11 8 18.5t19 7.5h76v14q0 6 4.5 10.5t11.5 4.5h89q6 26 28 47q13 12 35.5 20.5t40.5 8.5v0v0zM294 279h93
q14 0 16 13l15 61l47 -162q4 -11 16 -11h4q10 3 12 11l37 127l8 -28q3 -11 16 -11h115q6 0 11 4.5t5 11t-5 10.5t-11 4h-102l-21 71q-3 9 -12 11q-16 4 -20 -11l-37 -126l-48 166q-3 9 -13 10q-6 2 -12 -1.5t-7 -9.5l-28 -110h-79q-7 0 -12 -4t-5 -10.5t5 -11t12 -4.5z
M554 649q-6 14 -18 25q-9 8 -24.5 14.5t-27.5 6.5l-1 -1q-31 0 -53 -20q-12 -11 -17 -25h141v0zM693 573l2 10l-2 -28q0 -6 -5 -10.5t-11 -4.5h-387q-7 0 -11.5 4.5t-4.5 10.5v1v26h-77v-503l571 7v497h-73l-2 -10v0zM296 628l-1 -39v-30l184 1l196 -1l-1 39v29zM483 719
q-42 0 -72 -28q-20 -18 -27 -43l-5 -5h-89q-11 0 -11 -9v-14l-5 -6h-76q-9 0 -15.5 -5.5t-6.5 -14.5v-517q0 -8 6.5 -13.5t15.5 -5.5h571q9 0 15 5.5t6 13.5v517q0 9 -6 14.5t-15 5.5h-76l-6 6v14q0 9 -10 9h-88l-6 4q-7 26 -27 44q-13 12 -34 20t-38 8h-1v0zM403 700
q34 30 80 30q47 0 81 -30q20 -19 29 -45h84q9 0 15.5 -6.5t6.5 -14.5v-8h70q13 0 23 -9.5t10 -22.5v-517q0 -13 -10 -22t-23 -9h-571q-14 0 -23.5 9t-9.5 22v517q0 13 9.5 22.5t23.5 9.5h70v8q0 9 6.5 15t15.5 6h84q8 25 29 45v0zM418 331l-9 -40q-2 -7 -8 -12.5t-14 -5.5v0
h-93q-9 0 -15.5 6t-6.5 15t6.5 15t15.5 6h75l26 106q2 6 8.5 11t12.5 5q3 0 5 -1q13 -2 17 -15l43 -147l31 108q2 6 8.5 10.5t13.5 4.5h5q13 -4 16 -15l20 -67h98q9 0 15.5 -6t6.5 -15t-6.5 -15t-15.5 -6h-115h-1q-6 0 -12.5 4.5t-7.5 11.5l-3 9l-32 -108q-3 -12 -16 -15
q-2 -1 -5 -1q-7 0 -13 4.5t-9 11.5zM294 285h93q9 0 11 8l14 61h11l47 -161q3 -10 14 -7q6 1 7 7l37 126h11l8 -27q3 -7 10 -7h1h115q10 0 10 9q0 10 -10 10h-102l-6 4l-21 71q-2 5 -7 6q-11 3 -14 -6l-37 -127h-11l-48 166q-2 6 -8 7q-10 2 -13 -7l-27 -110l-5 -4h-80
q-11 0 -11 -10q0 -9 11 -9zM559 651l-5 -8h-141l-5 8q5 15 18 27q24 22 57 22q34 0 57 -22q13 -11 19 -27zM533 670q-21 19 -49 19h-1v0q-17 0 -34.5 -10t-26.5 -24h123q-5 8 -12 15v0zM689 584l6 5h73l6 -6v-497l-6 -6l-571 -7l-5 6l-1 503l6 6h77l6 -6l-1 -26
q0 -10 11 -10h387q10 0 10 10l1 18l1 10v0zM691 587l9 -5l-11 1l-1 -9l3 13v0zM699 555q0 -8 -6.5 -14t-15.5 -6h-387q-9 0 -15.5 6t-6.5 14v21h-65v-491l560 6v486h-63l-1 -22v0zM290 628l6 5h378l6 -6v-29l1 -39l-6 -6l-196 1l-184 -1l-6 6v31zM302 622l-1 -33v-25l178 1
h190v33v23l-367 1v0z" />
    <glyph glyph-name="tianjiazhaopian" unicode="&#xe6cc;" 
d="M480 416h-425q-10 0 -16.5 -6.5t-6.5 -16.5v0q0 -10 6.5 -16.5t16.5 -6.5h425v-441q0 -11 8 -18t20 -7q11 0 19 7.5t8 17.5v441h434q10 0 16.5 6.5t6.5 16.5v0q0 10 -6.5 16.5t-16.5 6.5h-434v423q0 11 -8 18t-19 7q-12 0 -20 -7.5t-8 -17.5v-423z" />
    <glyph glyph-name="quchi" unicode="&#xe6cd;" 
d="M644 530q-22 25 -58 25q-18 0 -42 -13q-14 -8 -21 -9q-7 1 -21 9q-24 13 -42 13q-35 0 -58 -25q-11 -12 -12 -32t5.5 -41.5t10.5 -32.5t7 -17q6 -13 2 -50q-2 -26 -1 -37q6 -37 19.5 -72t30.5 -35q9 0 12.5 9t8.5 36q18 86 38 89q20 -3 38 -89q5 -27 8.5 -36t12.5 -9
q16 0 31 33t19 74q1 10 -1 34q-4 39 2 53q3 6 7 17t10.5 32.5t5.5 41.5t-12 32zM617 414q-9 -18 -5 -61q3 -23 2 -31q-7 -62 -29 -88q-2 7 -6 27q-5 23 -8 35.5t-9.5 30.5t-16 27t-21.5 10h-0.5h-1.5q-12 -1 -21.5 -10t-16 -27t-9.5 -30.5t-8 -35.5q-4 -20 -6 -27
q-19 24 -29 88q-1 9 2 33q4 42 -4 59q-14 29 -19.5 58t5.5 47q17 19 44 19q13 0 32 -11q19 -10 31 -11h1q11 1 30 11q19 11 32 11q27 0 44 -19q11 -18 5.5 -47t-18.5 -58zM512 -116q-102 0 -194.5 39.5t-159.5 106.5t-106.5 159.5t-39.5 194.5t39.5 194.5t106.5 159.5
t159.5 106.5t194.5 39.5t194.5 -39.5t159.5 -106.5t106.5 -159.5t39.5 -194.5t-39.5 -194.5t-106.5 -159.5t-159.5 -106.5t-194.5 -39.5zM512 -91q97 0 185 37.5t151.5 101t101 151.5t37.5 185t-37.5 185t-101 151.5t-151.5 101t-185 37.5t-185 -37.5t-151.5 -101
t-101 -151.5t-37.5 -185t37.5 -185t101 -151.5t151.5 -101t185 -37.5z" />
    <glyph glyph-name="quchicopy" unicode="&#xe6ce;" 
d="M697 288q12 -10 12 -26q0 -14 -10 -25l-41 -40q-10 -11 -24 -11q-16 0 -27 13l-48 60q-5 2 -6 6l-60 74q-25 -11 -52 -11v0q-52 0 -89 37.5t-37 89.5q0 19 5 37l4 13l4 1l77 -77q4 -4 10.5 -4t10.5 4l41 41q4 4 4 10v1v0q0 6 -4 10l-77 77l1 4l13 4q18 5 37 5
q53 0 90 -37t37 -89q0 -27 -11 -51zM552 401v3q11 24 11 51q0 50 -35.5 85.5t-86.5 35.5q-18 0 -35 -5l-10 -3l74 -74q6 -5 6 -13v0v-1q0 -8 -6 -13l-41 -41q-5 -6 -13.5 -6t-13.5 6l-74 74l-3 -10q-6 -16 -6 -35q0 -50 36 -86t86 -36q27 0 51 11h3l62 -77q1 -3 5 -4l49 -61
q9 -11 23 -11q12 0 21 9l41 41q9 9 9 21q0 14 -11 23l-142 116v0zM624 213q4 -5 10 -5q5 0 9 4l41 41q4 4 4 9v0q-1 6 -5 10l-152 125v3l3 5q12 23 12 50q0 43 -30.5 74t-74.5 31q-6 0 -11 -1l52 -53q11 -10 11 -25.5t-11 -25.5l-41 -41q-10 -10 -25.5 -10t-25.5 10l-53 53
q-1 -6 -1 -12q0 -43 31 -74t74 -31q27 0 49 12l6 4l4 -1l65 -80l24 19q3 2 7 2q5 0 8 -4q3 -3 3 -7q0 -5 -4 -8l-24 -19l9 -12l27 22q3 2 7 2t7.5 -3t3.5 -8t-4 -8l-27 -22l22 -26v0zM687 249l-41 -40q-5 -6 -12 -6q-8 0 -14 7l-23 28v4l29 23q2 1 2 4q0 2 -1 4q-2 2 -5 2
q-2 0 -4 -1l-28 -23h-4l-12 16v3l26 21q2 1 2 4q0 2 -1 4q-2 2 -5 2q-2 0 -4 -1l-26 -21l-3 1l-66 80l-4 -2q-24 -13 -51 -13h-1v0q-45 0 -77.5 32.5t-32.5 77.5q0 9 2 17l4 1l56 -56q9 -9 22.5 -9t22.5 9l41 41q9 9 9 22v1q0 13 -9 22l-56 56l1 4q8 1 17 1v0q46 0 78 -32
t32 -77q0 -28 -13 -52l-2 -4l150 -124q6 -5 7 -12q0 -8 -7 -14h1v0zM696 286l-142 117q11 25 11 52q0 51 -36 87.5t-88 36.5q-18 0 -36 -5l-13 -4l76 -77q6 -5 6 -12v-1q0 -7 -6 -12l-40 -40q-5 -5 -12.5 -5t-12.5 5l-77 76l-4 -13q-5 -18 -5 -36v0v0q0 -51 36.5 -87.5
t87.5 -36.5q27 0 52 11l62 -75q1 -4 5 -6l49 -61q10 -11 25 -11q13 0 23 9l40 41q10 9 10 23q0 15 -12 25zM685 251l-40 -41q-5 -4 -11 -4q-7 0 -12 5l-23 29l28 23q4 2 4 7q0 8 -9 8q-3 0 -6 -2l-28 -23l-12 15l25 21q3 2 3 6q0 3 -2 6t-6 3q-3 0 -5 -2l-26 -21l-67 83
l-6 -4q-24 -12 -50 -12h-1v0q-44 0 -75.5 31.5t-31.5 75.5q0 8 1 17l56 -56q10 -10 24.5 -10t24.5 10l40 40q10 10 10 24v1q0 14 -10 24l-56 56q8 1 17 1v0v0q45 0 76 -31.5t31 -75.5v0q0 -27 -12 -51l-3 -5l152 -125q5 -5 5 -11v-1q0 -6 -4 -11h-1zM512 -116
q-102 0 -194.5 39.5t-159.5 106.5t-106.5 159.5t-39.5 194.5t39.5 194.5t106.5 159.5t159.5 106.5t194.5 39.5t194.5 -39.5t159.5 -106.5t106.5 -159.5t39.5 -194.5t-39.5 -194.5t-106.5 -159.5t-159.5 -106.5t-194.5 -39.5zM512 -91q97 0 185 37.5t151.5 101t101 151.5
t37.5 185t-37.5 185t-101 151.5t-151.5 101t-185 37.5t-185 -37.5t-151.5 -101t-101 -151.5t-37.5 -185t37.5 -185t101 -151.5t151.5 -101t185 -37.5z" />
    <glyph glyph-name="xiazai" unicode="&#xe6cf;" 
d="M492 184q7 -10 20 -10q10 0 17 7q5 2 9 6l264 264q7 7 7 17t-6 17q-7 7 -17 7t-17 -8l-234 -234v509q0 10 -7 17t-16.5 7t-16.5 -7t-7 -17v-506l-231 231q-7 7 -16 7q-10 0 -17 -6.5t-7 -16.5t7 -17l265 -264zM886 -14h24v328h-47v-281h-702v-47h725zM114 314h47v-328
h-47v328z" />
    <glyph glyph-name="zuozhuan" unicode="&#xe6d0;" 
d="M114 247q-1 -7 2 -17q25 -112 122.5 -201t211.5 -103q105 -13 201 27.5t159 123.5t76 189q3 25 3 49q0 94 -46 180t-125 142t-172 68q-9 1 -18 1q1 11 3.5 31t3.5 29q1 8 2.5 19.5t2.5 17.5t1 9q3 11 -3 19t-16 8q-7 0 -13 -4v-1l-16 -15l-114 -89l-16 -12l-14 -10
q-7 -5 -8 -14q-1 -1 -1 -3q0 -6 5 -11l10 -14l12 -16l89 -114l13 -17l1 -1q13 -14 29 -3q9 8 7 18l6 46q2 13 7 54q3 0 9 -1t9 -1q86 -11 154 -62.5t101 -129.5t22.5 -164t-62 -153.5t-130 -101t-163.5 -22.5q-95 11 -175 85.5t-99 167.5q-2 10 -11 18t-19 9
q-15 2 -27.5 -7.5t-13.5 -23.5v0z" />
    <glyph glyph-name="youzhuan" unicode="&#xe6d1;" 
d="M889 247q1 -7 -2 -17q-24 -112 -122 -201t-212 -103q-105 -13 -200.5 27.5t-159 123.5t-76.5 189q-3 25 -3 49q0 94 46 180t125 142t173 68q7 1 17 1q-1 10 -3.5 30.5t-3.5 29.5t-2.5 20t-2.5 17t-1 9q-3 11 4 19q6 8 16 8q6 0 12 -4v-1l16 -15l114 -89l17 -12l13 -10
q7 -5 8 -14q1 -1 1 -3q0 -6 -4 -11l-11 -14l-12 -16l-89 -114l-13 -17l-1 -1q-6 -7 -16 -7q-7 0 -13 4q-9 8 -7 18q-1 2 -1.5 8t-2 17.5t-2.5 20.5q-3 18 -7 54q-3 0 -9 -1t-9 -1q-86 -11 -153.5 -62.5t-101 -129.5t-23 -164t62 -153.5t130 -101t163.5 -22.5q95 11 175 85.5
t99 167.5q2 10 11 18t20 9q15 2 27 -7.5t13 -23.5z" />
    <glyph glyph-name="dingwei" unicode="&#xe6d2;" 
d="M117 489q-2 131 71 237t192 146q134 45 258 6.5t207 -150.5q76 -102 76 -235.5t-77 -236.5q-85 -112 -235 -293q-46 -54 -93.5 -53t-92.5 57q-176 219 -218 275q-91 119 -88 247zM168 489q-9 -96 63 -194q56 -76 242 -305q25 -29 49 -26.5t47 30.5q16 20 72.5 89
t92 114.5t68.5 91.5q71 102 68 214.5t-76 206.5q-43 56 -124 95.5t-152 39.5q-58 0 -112 -19q-108 -37 -173 -128t-65 -209zM345 495q0 73 47.5 122.5t118.5 49.5q78 1 130.5 -48t52.5 -122q1 -75 -51.5 -127.5t-126 -51.5t-122.5 51.5t-49 125.5zM519 616q-51 1 -86 -33
t-36 -85q-2 -53 33.5 -90t88.5 -37v0q50 0 86 35t36 85q2 53 -33 89t-89 36z" />
    <glyph glyph-name="shezhi" unicode="&#xe6d3;" 
d="M923 335q-65 -17 -111.5 -77t-46.5 -128q0 -28 7 -55l-109 -63q-26 27 -70.5 45.5t-81 18.5t-81 -18.5t-70.5 -45.5l-109 63q7 27 7 55q0 68 -46.5 128t-111.5 77v122q65 18 111.5 78t46.5 127q0 28 -7 55l109 63q26 -26 70.5 -44.5t81 -18.5t81 18.5t70.5 44.5l109 -63
q-7 -27 -7 -55q0 -67 46.5 -127t111.5 -78v-122v0zM976 288v216q-65 0 -111.5 46.5t-46.5 111.5q0 42 21 79l-190 108q-19 -33 -59.5 -56t-78.5 -23t-78 23t-59 56l-190 -108q21 -37 21 -79q0 -65 -46.5 -111.5t-111.5 -46.5v-216q65 0 111.5 -46t46.5 -112q0 -42 -21 -78
l190 -109q19 33 59 56.5t78 23.5t78.5 -23.5t59.5 -56.5l190 109q-21 36 -21 78q0 66 46.5 112t111.5 46zM378 396q0 55 39 94t94.5 39t94.5 -39t39 -94t-39 -94t-94.5 -39t-94.5 39t-39 94zM591 396v0q0 33 -23 56.5t-56.5 23.5t-57 -23.5t-23 -56.5t23.5 -56.5t56.5 -23.5
t56.5 23.5t23 56.5z" />
    <glyph glyph-name="xinzeng" unicode="&#xe6d4;" 
d="M477 404h-349q-14 0 -24.5 -10.5t-10.5 -24.5q0 -15 10.5 -25t24.5 -10h349v-349q0 -14 10.5 -24.5t25 -10.5t24.5 10.5t10 24.5v349h349q14 0 24.5 10.5t10.5 24.5v0q0 15 -10 25t-25 10v0h-349v349q0 14 -10.5 24.5t-24.5 10.5v0q-15 0 -25 -10t-10 -25v0v-349z" />
    <glyph glyph-name="gengduo" unicode="&#xe6d5;" 
d="M178 778q-25 0 -42.5 -17.5t-17.5 -42.5v-182q0 -25 17.5 -43t42.5 -18h182q25 0 43 18t18 43v182q0 25 -18 42.5t-43 17.5h-182zM178 839h182q51 0 86.5 -35.5t35.5 -85.5v-182v0q0 -51 -35.5 -86.5t-86.5 -35.5v0h-182v0q-50 0 -85.5 35.5t-35.5 86.5v0v182
q0 50 35.5 85.5t85.5 35.5zM664 778q-25 0 -43 -17.5t-18 -42.5v-182q0 -25 18 -43t43 -18h182q25 0 42.5 18t17.5 43v182q0 25 -17.5 42.5t-42.5 17.5h-182zM664 839h182q50 0 85.5 -35.5t35.5 -85.5v-182v0q0 -51 -35.5 -86.5t-85.5 -35.5h-182v0q-51 0 -86.5 35.5
t-35.5 86.5v0v182q0 50 35.5 85.5t86.5 35.5zM664 293q-25 0 -43 -18t-18 -43v-182q0 -25 18 -42.5t43 -17.5h182q25 0 42.5 17.5t17.5 42.5v182q0 25 -17.5 43t-42.5 18h-182zM664 354h182q50 0 85.5 -35.5t35.5 -86.5v-182q0 -50 -35.5 -85.5t-85.5 -35.5h-182v0
q-51 0 -86.5 35.5t-35.5 85.5v182q0 51 35.5 86.5t86.5 35.5zM178 293q-25 0 -42.5 -18t-17.5 -43v-182q0 -25 17.5 -42.5t42.5 -17.5h182q25 0 43 17.5t18 42.5v182q0 25 -18 43t-43 18h-182zM178 354h182q51 0 86.5 -35.5t35.5 -86.5v-182v0q0 -50 -35.5 -85.5
t-86.5 -35.5v0h-182v0q-50 0 -85.5 35.5t-35.5 85.5v182q0 51 35.5 86.5t85.5 35.5z" />
    <glyph glyph-name="gengduogedian" unicode="&#xe6d6;" 
d="M114 412zM28 412.5q0 -35.5 25 -60.5t60.5 -25t60.5 25t25 60.5t-25 60.5t-60.5 25t-60.5 -25t-25 -60.5zM512 412zM427 412.5q0 -35.5 25 -60.5t60 -25t60 25t25 60.5t-25 60.5t-60 25t-60 -25t-25 -60.5zM910 412zM825 412.5q0 -35.5 25 -60.5t60.5 -25t60.5 25
t25 60.5t-25 60.5t-60.5 25t-60.5 -25t-25 -60.5z" />
    <glyph glyph-name="dayin" unicode="&#xe6d7;" 
d="M903 628h-60v211h-605v-211h-60q-50 0 -85.5 -35.5t-35.5 -85.5v-393h181v-242h605v242h181v393q0 50 -35.5 85.5t-85.5 35.5zM299 779h483v-151h-483v151zM782 -67h-483v272h483v-272v0zM964 174h-121v91h-605v-91h-121v333q0 25 18 42.5t43 17.5h725q25 0 42.5 -17.5
t17.5 -42.5v-333h1zM540 477h-272q-12 0 -21 -9t-9 -21.5t9 -21.5t21 -9h272q13 0 22 9t9 21.5t-9 21.5t-22 9z" />
    <glyph glyph-name="bianji" unicode="&#xe6d8;" 
d="M805 -14h-572q-46 0 -82 35q-37 36 -37 80v578q0 46 39 76q15 11 38.5 19t41.5 8h1h307q11 0 19.5 -8t8.5 -19.5t-8.5 -19.5t-19.5 -8h-308q-24 0 -43.5 -13.5t-19.5 -34.5v-578q0 -22 20 -41.5t43 -19.5h572q21 0 34 18.5t13 42.5v296q0 11 8.5 19t20 8t19.5 -8t8 -19
v-296q0 -45 -26 -78q-12 -15 -34.5 -26t-41.5 -11h-1v0zM501 350v0q-14 0 -24.5 10t-10.5 24t10 24l374 364q10 10 24.5 10t25 -10t10.5 -29.5t-10 -29.5l-363 -353q-10 -10 -36 -10z" />
    <glyph glyph-name="huanzheguanli-youxiajiaojiahao" unicode="&#xe6d9;" 
d="M497 412h-444v0q-10 0 -17.5 -7t-7.5 -17v0q1 -10 8 -17.5t17 -7.5h444v-443q0 -11 7 -18t17.5 -7t17.5 7.5t7 17.5v443h425v0q10 0 17.5 7.5t7.5 17.5v0q-1 10 -8 17t-17 7h-425v425v0q0 10 -7 17.5t-17 7.5v0q-11 0 -18 -7.5t-7 -17.5v-425z" />
    <glyph glyph-name="dayinshezhi" unicode="&#xe6da;" 
d="M872 72l11 -9l9 11l-3 3l-8 6zM758 65q12 14 32.5 23.5t38.5 9.5q8 0 16 -1q20 -3 36 -14l44 52q-14 14 -21 33q-5 15 -5 31q0 25 15 49.5t37 35.5l-23 64q-11 -3 -23 -3q-8 0 -15 1q-32 6 -54.5 33t-22.5 59q0 4 1 7l-67 12q-5 -19 -22 -37.5t-36 -25.5q-15 -5 -31 -5
q-28 0 -52 16l-43 -52q11 -12 18.5 -31t7.5 -34q0 -21 -9 -40q-14 -30 -43 -44l23 -65q11 3 22 3q20 0 42 -11.5t34 -27.5q18 -27 16 -61l66 -11q6 19 18 34zM514 225l4 1q25 10 36 34q7 13 7 28q0 12 -7 26.5t-16 22.5l-15 12l80 96l11 -10l3 -3q18 -15 41 -15q11 0 22 4
q14 5 26.5 20t15.5 30l3 19l121 -22l-3 -18q-5 -27 10 -49t41 -27q17 -3 33 3l18 7l42 -117l-13 -4l-4 -2q-18 -7 -30.5 -25t-12.5 -37q0 -11 4 -22q6 -16 19 -27l14 -12l-79 -95l-11 9l-4 3q-17 15 -41 15q-11 0 -21 -4q-17 -6 -28 -19.5t-14 -30.5l-3 -18l-121 21l2 14
l1 5q1 5 1 11q0 21 -12 37q-7 12 -22.5 20t-29.5 8q-11 0 -22 -4l-18 -7l-41 117zM653 27l2 13v9q0 24 -13 43q-9 13 -26.5 22t-33.5 9q-11 0 -21 -3l-13 -4l-35 98l12 5q26 11 38 37q7 15 7 32q0 13 -7 29t-17 25l-9 9l66 80l11 -8q20 -15 44 -15q13 0 25 4q16 6 29.5 21.5
t17.5 32.5l3 13l102 -18l-2 -13v-10q0 -25 17.5 -46.5t42.5 -26.5q17 -3 34 3l13 4l35 -99l-12 -5q-27 -11 -39 -38.5t-2 -55.5q6 -16 19 -28l10 -10l-67 -80l-11 8q-19 15 -44 15q-12 0 -24 -4q-19 -7 -32 -22q-11 -14 -15 -31l-3 -13zM734 41q10 28 38 47.5t57 19.5
q9 0 18 -2q17 -3 32 -11l33 40q-11 13 -17 30q-5 17 -5 34q0 25 14.5 51t35.5 38l-18 49q-17 -3 -34 0q-35 7 -59.5 36t-24.5 65l-50 9q-7 -19 -25 -37t-36 -24q-17 -6 -35 -6q-26 0 -50 13l-33 -40q10 -12 16.5 -31t6.5 -34q0 -23 -9 -44q-6 -12 -18 -25t-23 -20l18 -49
q8 2 16 2q22 0 46.5 -13t36.5 -31q18 -26 18 -58zM730 166q7 -2 13 -2q28 0 51 19.5t27 46.5q2 7 2 14q0 28 -19 50.5t-46 27.5q-7 1 -13 1q-28 0 -51 -19t-27 -47q-2 -7 -2 -14q0 -27 19 -49.5t46 -27.5zM725 138q-36 6 -62 37t-26 68q0 10 2 19q6 37 37 63.5t69 26.5
q9 0 18 -2q36 -6 62 -37t26 -69q0 -9 -2 -19q-6 -37 -37 -63t-69 -26q-9 0 -18 2zM761 341q33 -6 57 -34.5t24 -62.5q0 -8 -2 -17q-6 -34 -34 -58t-63 -24q-8 0 -16 2q-34 6 -57.5 34t-23.5 62q0 9 2 18q6 34 34 57.5t63 23.5q8 0 16 -1zM756 313q-6 1 -11 1q-25 0 -45 -17
t-24 -41q-1 -6 -1 -13q0 -24 16.5 -44t40.5 -24q5 -1 11 -1q25 0 45 17t24 41q1 6 1 12q0 24 -16.5 44.5t-40.5 24.5zM739 14l-92 22l1 4q7 32 -10 60q-9 15 -28.5 26t-36.5 11q-12 0 -24 -4l-4 -1l-28 91l5 2q31 10 46 38q10 18 10 38q0 14 -7.5 31t-17.5 26l-4 4l65 70
l3 -4q10 -8 25.5 -14.5t28.5 -6.5q11 0 22 4q21 6 35.5 21.5t18.5 36.5l1 4l93 -21l-1 -4q-8 -32 9 -60t49 -36q20 -4 41 2l4 2l27 -92l-4 -1q-23 -8 -39.5 -30t-16.5 -47q0 -11 4 -22q6 -21 21 -35l3 -3l-65 -70l-3 3q-9 9 -25 15t-28 6t-23 -3q-20 -6 -35 -22
q-14 -16 -19 -36zM658 43l75 -18q5 21 20 36q10 12 29 20t35 8q10 0 19 -2q21 -5 37 -18l52 57q-14 15 -20 35q-10 34 5.5 65.5t48.5 43.5l-22 74q-11 -3 -22 -3q-10 0 -19 2q-34 8 -53 37.5t-13 64.5l-75 17q-5 -19 -22.5 -36.5t-36.5 -23.5q-12 -4 -25 -4t-29.5 6
t-26.5 15l-53 -57q10 -11 17.5 -29t7.5 -32q0 -22 -11 -42q-16 -30 -47 -42l22 -74q11 3 21 3q20 0 42 -12t32 -29q18 -29 12 -62zM723 153q-30 7 -51 33.5t-21 56.5q0 11 3 22q6 30 33 51t58 21q10 0 20 -2q30 -7 51 -33.5t21 -57.5q0 -10 -3 -21q-7 -30 -33.5 -51.5
t-57.5 -21.5q-10 0 -20 3v0zM763 326q-9 2 -18 2q-28 0 -52 -19t-30 -46q-3 -10 -3 -20q0 -27 19 -51t46 -30q34 -8 63 10.5t37 52.5q3 10 3 19q0 28 -19 52t-46 30zM922 508q-26 11 -54 18v16q0 22 -16 38t-38 16h-649q-22 0 -38 -16t-16 -38v-298h108v81h269
q-11 -26 -17 -54h-198v-243h241q18 -29 42 -54h-337v216h-162v352q0 44 31.5 76t76.5 32h54v189h541v-189h54q45 0 76.5 -32t31.5 -76v-34zM706 785h-433v-135h433v135v0zM473 492h-272q-13 0 -21.5 -9t-8.5 -21.5t8.5 -21t21.5 -8.5h272q12 0 21 8.5t9 21t-9 21.5t-21 9z
" />
    <glyph glyph-name="xitongxiaoxi" unicode="&#xe6db;" 
d="M490 -90q-45 0 -77 32.5t-32 78.5h218q0 -46 -32 -78.5t-77 -32.5v0zM825 87h-670q-22 0 -37.5 15.5t-15.5 38t15.5 38t37.5 15.5q1 0 2.5 1.5t6.5 7t8.5 14t7.5 25.5t5 39v183q0 113 71.5 200t178.5 108v15q0 24 16 41t39 17t39.5 -17t16.5 -41v-15q107 -20 178.5 -107
t71.5 -201v-182q2 -35 9.5 -57t14.5 -27l6 -4q22 0 37 -15.5t15 -38.5q-1 -22 -16.5 -37.5t-36.5 -15.5v0z" />
    <glyph glyph-name="richenganpai" unicode="&#xe6dc;" 
d="M823 -20h-622v0q-51 0 -87.5 36.5t-36.5 88.5v373h870v-373q0 -52 -36.5 -88.5t-87.5 -36.5zM675 335q-9 9 -22 9t-22 -9l-110 -110l-66 66q-9 9 -22 9t-22 -9t-9 -22t9 -22l88 -88q9 -9 22 -9t22 9l132 132q9 9 9 22t-9 22v0zM77 602q0 51 36.5 87.5t87.5 36.5h62v31
q0 13 9.5 22t22 9t21.5 -9t9 -22v-31h374v31q0 13 9 22t21.5 9t22 -9t9.5 -22v-31h62q51 0 87.5 -36.5t36.5 -87.5v-62h-870v62z" />
    <glyph glyph-name="chakanxiangqing" unicode="&#xe6dd;" 
d="M482 -12q-13 -13 -13 -30.5t12.5 -30t30.5 -12.5t30 12l427 427q12 12 12 30t-12 30l-427 427q-12 12 -30 12t-30.5 -12.5t-12.5 -30t13 -30.5l396 -396z" />
    <glyph glyph-name="weixin" unicode="&#xe6de;" 
d="M573 327.5q0 12.5 10.5 23t22.5 10.5q18 0 29.5 -10t11.5 -23t-11.5 -23t-29.5 -10q-12 0 -22.5 10t-10.5 22.5zM753 327.5q0 12.5 10 23t22 10.5q18 0 29.5 -10t11.5 -23t-11.5 -23t-29.5 -10q-12 0 -22 10t-10 22.5zM418 253q0 -100 81 -170t197 -70q32 0 98 16l89 -49
l-24 82q114 88 114 191q0 99 -83 170t-194 71q-116 0 -197 -70.5t-81 -170.5v0zM377 742q-88 0 -163 -37t-119 -102t-44 -142q0 -132 131 -224l-33 -100l114 58q83 -16 114 -16q14 0 31 1q-10 34 -10 69q0 109 80.5 186t196.5 77q14 0 32 -2q-22 100 -115.5 166t-214.5 66v0
zM271 519q-19 0 -34 11.5t-15 29.5t15 29.5t34 11.5t30 -11t11 -30t-11 -30t-30 -11zM500 519q-19 0 -34 11.5t-15 29.5t15 29.5t34 11.5q18 0 29.5 -11t11.5 -30t-11.5 -30t-29.5 -11z" />
    <glyph glyph-name="kucunguanli" unicode="&#xe6df;" 
d="M993 516l-450 316q-5 5 -11 8q-10 6 -22.5 3t-19.5 -14l-447 -314q-10 -7 -11.5 -21t7 -25.5t22 -15t22.5 3.5l30 23v-519q0 -14 10.5 -24.5t25 -10.5t25 10.5t10.5 24.5v568l335 235l338 -238v-563q0 -15 10.5 -25.5t25 -10t24.5 10.5t10 25v512l24 -16q11 -7 24 -4
t21 15t7 25.5t-10 20.5zM243 97l267 463l268 -463h-535v0zM859 -74h-710l743 1v65l-11 574l-383 218l-328 -246l-25 -589l714 -23v0zM499 219q-9 45 -16 93q-7 36 -1 67t31 30q44 -2 31 -96l-16 -94q-1 -11 -14 -11t-15 11v0zM492 164q0 -9 6.5 -15.5t15 -6.5t15 6.5
t6.5 15.5t-6.5 15.5t-15 6.5t-15 -6.5t-6.5 -15.5zM822 -73h-664v43z" />
    <glyph glyph-name="yuyuetixing" unicode="&#xe6e0;" 
d="M651 705v59v1q0 12 -8.5 20.5t-21 8.5t-21 -8.5t-8.5 -20.5v-1v-59h59v0zM271 705v59v1q0 12 -8.5 21t-20.5 9t-20.5 -9t-8.5 -21v-1v-59h58zM811 295q-66 0 -113 -47t-47 -114v0v0q0 -67 47 -114t113 -47q67 0 114 47t47 114v0v0q0 67 -47 114t-114 47zM915 175
l-112 -113q-7 -7 -16 -7t-15 7l-64 64q-6 7 -6 16t6.5 15.5t15.5 6.5t15 -7l48 -49l96 98q7 7 16 7t15.5 -6.5t6.5 -15.5t-6 -16zM592 134q0 91 64.5 155.5t154.5 64.5v292q0 25 -17 42t-41 17h-102v-59v-1q0 -13 -8.5 -21.5t-21 -8.5t-21 8.5t-8.5 21.5v1v59h-321v-59v-1
q0 -13 -8.5 -21.5t-20.5 -8.5t-20.5 8.5t-8.5 21.5v1v59h-103q-24 0 -41 -17t-17 -42v-645q0 -24 17 -41t41 -17h594q-46 26 -79 82t-33 109zM111 493q0 12 8.5 20.5t20.5 8.5h584q12 0 20.5 -8.5t8.5 -20.5t-8.5 -20.5t-20.5 -8.5h-584q-12 0 -20.5 8.5t-8.5 20.5v0v0z
M434 61h-253q-12 0 -20.5 8.5t-8.5 20.5t8.5 20.5t20.5 8.5h253q12 0 20.5 -8.5t8.5 -20.5t-8.5 -20.5t-20.5 -8.5v0zM434 237h-253q-12 0 -20.5 8.5t-8.5 20.5t8.5 20.5t20.5 8.5h253q12 0 20.5 -8.5t8.5 -20.5t-8.5 -20.5t-20.5 -8.5v0z" />
    <glyph glyph-name="guanbi-chahao" unicode="&#xe6e1;" 
d="M554 384l256 255q8 9 8 21.5t-8.5 21.5t-21 9t-21.5 -9l-255 -255l-255 255q-9 8 -21 8t-21 -9t-9 -21t8 -21l255 -255l-255 -255q-10 -9 -10 -23q0 -12 9 -21t21 -9q14 0 23 11l255 255l255 -256q9 -8 21 -8t21 9t9 21t-8 21z" />
    <glyph glyph-name="shoufeixiangmu-xinzeng" unicode="&#xe6e2;" 
d="M938 384v0q0 -13 -9 -21.5t-21 -8.5h-792q-12 0 -21 8.5t-9 21.5v0v0q0 13 9 21.5t21 8.5h792q12 0 21 -8.5t9 -21.5v0v0zM512 810v0q13 0 21.5 -9t8.5 -21v-792q0 -12 -8.5 -21t-21.5 -9v0v0q-13 0 -21.5 9t-8.5 21v792q0 12 8.5 21t21.5 9v0z" />
    <glyph glyph-name="shoufeixiangmu-yaoqingwancheng" unicode="&#xe6e3;" 
d="M512 875q-100 0 -191 -39t-156.5 -104.5t-104.5 -156.5t-39 -191t39 -191t104.5 -157t156.5 -104.5t191 -38.5t191 38.5t157 104.5t105 157t39 191t-39 191t-105 156.5t-157 104.5t-191 39zM814 543l-370 -370q-11 -11 -26 -11t-26 11l-143 142q-10 11 -10 26t10.5 26
t26 11t25.5 -11l117 -117l345 345q10 11 25.5 11t26 -11t10.5 -26t-11 -26z" />
    <glyph glyph-name="zhankai1" unicode="&#xe6e4;" 
d="M319 505l-52 -51l245 -246l246 246l-52 51l-194 -193zM512 -91q-97 0 -185 37.5t-151.5 101t-101 151.5t-37.5 185t37.5 185t101 151.5t151.5 101t185 37.5t185 -37.5t151.5 -101t101 -151.5t37.5 -185t-37.5 -185t-101 -151.5t-151.5 -101t-185 -37.5zM512 -18
q109 0 202 53.5t146.5 146.5t53.5 202t-53.5 202t-146.5 146.5t-202 53.5t-202 -53.5t-146.5 -146.5t-53.5 -202t53.5 -202t146.5 -146.5t202 -53.5z" />
    <glyph glyph-name="shouqi" unicode="&#xe6e5;" 
d="M319 263l-52 51l245 246l246 -246l-52 -51l-194 193zM512 859q-97 0 -185 -37.5t-151.5 -101t-101 -151.5t-37.5 -185t37.5 -185t101 -151.5t151.5 -101t185 -37.5t185 37.5t151.5 101t101 151.5t37.5 185t-37.5 185t-101 151.5t-151.5 101t-185 37.5zM512 786
q109 0 202 -53.5t146.5 -146.5t53.5 -202t-53.5 -202t-146.5 -146.5t-202 -53.5t-202 53.5t-146.5 146.5t-53.5 202t53.5 202t146.5 146.5t202 53.5z" />
    <glyph glyph-name="daoru" unicode="&#xe6e6;" 
d="M481 261q0 -12 9 -21t22 -9t22 9t9 21v458q-1 12 -9.5 21t-21.5 9t-21.5 -9t-9.5 -21v-458zM490 222q9 -9 22 -9t21.5 9t8.5 21.5t-8 21.5l-183 182q-9 9 -21.5 9t-21.5 -8.5t-9 -21.5t9 -22l182 -182v0zM716 404q8 9 8 21t-9 21t-22 9q-11 0 -20 -7l-183 -183
q-8 -9 -8 -21.5t8.5 -21.5t21.5 -9t22 9zM238 18q-38 0 -65 26.5t-27 64.5v183q0 12 9 21t21.5 9t21.5 -9t9 -21v-183q0 -13 9 -21.5t22 -8.5h548q13 0 22 8.5t9 21.5v183q0 12 9 21t21.5 9t21.5 -9t9 -21v-183q0 -38 -27 -64.5t-65 -26.5h-548z" />
    <glyph glyph-name="daochu1" unicode="&#xe6e7;" 
d="M481 719q0 12 9 21t22 9t22 -9t9 -21v-458q0 -12 -9 -21t-22 -9t-21.5 9t-9.5 21v458zM308 557l182 183q9 9 22 9t21.5 -9t8.5 -21.5t-8 -21.5l-183 -183q-9 -8 -21.5 -8t-21.5 8.5t-9 21.5t9 22v-1zM533 740l183 -183q8 -8 8 -20t-9 -21t-22 -9q-11 0 -20 7l-183 183
q-8 9 -8 21.5t8.5 21.5t21.5 9t22 -9h-1zM786 18h-548q-38 0 -65 26.5t-27 64.5v183q0 13 9 21.5t21.5 8.5t21.5 -8.5t9 -21.5v-183q0 -13 9 -21.5t22 -8.5h548q13 0 22 8.5t9 21.5v183q0 13 9 21.5t21.5 8.5t21.5 -8.5t9 -21.5v-183q0 -38 -27 -64.5t-65 -26.5v0z" />
    <glyph glyph-name="lirun-zuoqie" unicode="&#xe6e8;" 
d="M146 388l392 392q12 13 12 30.5t-12.5 30t-30 12.5t-29.5 -12l-423 -423q-12 -12 -12 -29.5t12 -30.5l423 -422q12 -13 30 -13t30.5 12.5t12.5 29.5q0 18 -13 31z" />
    <glyph glyph-name="lirun-youqie" unicode="&#xe6e9;" 
d="M870 388l-392 392q-13 13 -13 30.5t12.5 30t30 12.5t30.5 -12l422 -423q13 -12 13 -29.5t-13 -30.5l-422 -422q-13 -13 -31 -13q-17 0 -30 12.5t-13 29.5q0 18 14 31z" />
    <glyph glyph-name="chongzhi-cehua-tuifeixinxi" unicode="&#xe6ea;" 
d="M512 832q-184 0 -316 -132t-132 -316q0 -90 36 -173t96 -143t143 -96t173 -36t173 36t143 96t96 143t36 173t-36 173t-96 143t-143 96t-173 36zM512 -16q-164 0 -282 118t-118 282t118 282t282 118t282 -118t118 -282t-118 -282t-282 -118zM288 361h454v71h-454v-71z" />
    <glyph glyph-name="bingli-moban" unicode="&#xe6eb;" 
d="M798 895h-70v0h-578q-26 0 -45 -19t-19 -45v-865q0 -27 19 -46t45 -19h724v0q26 0 45 19t19 46v789zM866 27v0q0 -23 -15.5 -38.5t-37.5 -16.5h-602q-22 1 -37.5 16.5t-15.5 38.5v0v742q0 23 15.5 39t37.5 16h517v-139h138v-658v0zM693 611h-362v0q-13 0 -22.5 -9.5
t-9.5 -22.5v0v-6q0 -14 9.5 -23.5t22.5 -9.5h362q13 0 22.5 9.5t9.5 23.5v6v0q0 13 -9.5 22.5t-22.5 9.5v0zM693 398h-362q-13 0 -22.5 -9.5t-9.5 -22.5v-6q0 -14 9.5 -23.5t22.5 -9.5h362q13 0 22.5 9.5t9.5 23.5v6q0 13 -9.5 22.5t-22.5 9.5v0zM693 185h-362
q-13 0 -22.5 -9.5t-9.5 -22.5v-6q0 -14 9.5 -23.5t22.5 -9.5h362q13 0 22.5 9.5t9.5 23.5v6q0 13 -9.5 22.5t-22.5 9.5v0z" />
    <glyph glyph-name="hengxian" unicode="&#xe6ec;" 
d="M0 457h1024v-73h-1024v73z" />
    <glyph glyph-name="bingli-danxiangmoban" unicode="&#xe6ed;" 
d="M85 896q-35 0 -60 -25t-25 -60t25 -59.5t60 -24.5t59.5 24.5t24.5 59.5t-24.5 60t-59.5 25zM291 867q-17 0 -29 -12t-12 -29v-30q0 -16 12 -28.5t29 -12.5h691q17 0 29 12.5t12 28.5v30q0 17 -12 29t-29 12h-691v0zM85 540q-35 0 -60 -25t-25 -60t25 -59.5t60 -24.5
t59.5 24.5t24.5 59.5t-24.5 60t-59.5 25zM250 441q0 -17 12 -29t29 -12h691q17 0 29 12t12 29v29q0 17 -12 29t-29 12h-691q-17 0 -29 -12t-12 -29v-29v0zM85 184q-35 0 -60 -24.5t-25 -59.5t25 -60t60 -25t59.5 25t24.5 60t-24.5 59.5t-59.5 24.5zM250 85q0 -17 12 -29
t29 -12h691q17 0 29 12t12 29v29q0 17 -12 29t-29 12h-691q-17 0 -29 -12t-12 -29v-29v0z" />
    <glyph glyph-name="fangdajing" unicode="&#xe6ee;" 
d="M958 -61q-9 -8 -21 -8t-21 8l-236 232q-43 -35 -113.5 -59.5t-126.5 -24.5h-1q-103 0 -191.5 50.5t-139.5 137t-51 188.5t51 188.5t139.5 137t192 50.5t192 -50.5t139.5 -137t51 -188.5q0 -60 -29 -134t-70 -118l235 -231q8 -8 8 -20t-8 -21v0zM439 781q-87 0 -162 -42.5
t-118 -116t-43 -159.5t43 -159.5t118 -116t162.5 -42.5t162.5 42.5t118 116t43 159.5t-43 159.5t-118 116t-163 42.5v0z" />
    <glyph glyph-name="tuxiangcaiji" unicode="&#xe6ef;" 
d="M338 616q-41 0 -68.5 -29t-27.5 -70t28.5 -70t67.5 -29t67 29t28 70t-27 70t-68 29zM338 452q-28 0 -46.5 20t-18.5 49q0 27 19.5 47.5t45.5 20.5q28 0 46.5 -20t18.5 -48q2 -30 -17 -49.5t-48 -19.5zM925 712q0 28 -20 49.5t-48 21.5h-707q-28 0 -48 -20.5t-20 -50.5
v-608q0 -28 20 -50t48 -22h703q29 0 49 21t20 51l3 553v55zM894 312v-208q0 -16 -11 -28.5t-26 -12.5h-707q-15 0 -26 11.5t-11 29.5v154l20 -14q67 -44 126 -44q35 0 75.5 23t119.5 86l7 7q17 13 37 27q59 45 99.5 65t78.5 20q77 0 153 -54q8 -5 15 -10.5t13.5 -11.5
t11 -10.5t10 -11t7.5 -9t7 -9t5 -7.5l-4 31v-24zM894 360l-20 17q-98 82 -202 82q-48 0 -97.5 -26.5t-141.5 -99.5q-3 -4 -6 -4q-7 -3 -14 -10q-63 -49 -96.5 -69t-60.5 -20q-69 0 -143 69l-4 3v410q0 15 11.5 28t26.5 13h706q16 0 27 -12t11 -29v-352h3z" />
    <glyph glyph-name="yuyuefuzhen" unicode="&#xe6f0;" 
d="M440 111q5 -5 15.5 -5t15.5 5l307 328q7 6 7 16.5t-7 17.5q-5 5 -15 5t-15 -5l-291 -311l-126 120q-7 6 -17 6q-7 0 -13.5 -6.5t-6.5 -17t6 -17.5zM816 814h-123v75h-34v-75h-294v75h-34v-75h-123q-54 0 -93.5 -41t-39.5 -99v-618q0 -58 39.5 -99t93.5 -41h608
q55 0 94 41.5t39 98.5v618q0 58 -39.5 99t-93.5 41zM915 56q0 -43 -29 -74t-70 -31h-608q-41 0 -70 31t-29 74v526h806v-526zM915 616h-806v58q0 44 29 75t70 31h123v-75h34v75h294v-75h34v75h123q41 0 70 -31t29 -75v-58z" />
    <glyph glyph-name="xinzengwaijiagong" unicode="&#xe6f1;" 
d="M905 80l6 4q11 5 11 17v191q0 12 -11 17l-160 95q-3 4 -10 4t-11 -4l-163 -95q-11 -5 -11 -17v-191q0 -12 11 -17l167 -96q11 -6 17 0zM887 108l-146 -86l-150 89v174l150 85l146 -88v-174zM444 220h-154q-20 0 -20 -24q0 -10 6 -17t14 -7h154q20 0 20 24t-20 24z
M666 626h-376q-10 0 -15 -6t-5 -14t6 -14.5t14 -6.5h376q10 0 16.5 6.5t6.5 14.5t-6.5 14t-16.5 6zM529 422h-239q-10 0 -15 -6.5t-5 -14.5t6 -14t14 -6h239q10 0 17 6t7 14t-7 14.5t-17 6.5zM515 -2h-290q-26 0 -45.5 19t-19.5 46v645q0 26 19 45.5t46 19.5h570
q27 0 46 -18.5t19 -46.5v-201q0 -8 7 -16t17 -8t17 7t7 17v201q0 46 -31 77.5t-75 31.5h-577q-43 0 -74.5 -31.5t-31.5 -77.5v-645q0 -46 32 -77.5t78 -31.5h286q9 0 16.5 7t7.5 17q0 7 -8 13.5t-16 6.5v0z" />
    <glyph glyph-name="binglishouye" unicode="&#xe6f2;" 
d="M782 -55h-541q-31 0 -51 28q-19 25 -19 60v741q0 35 19 60q20 28 51 28h541q31 0 51 -28q19 -25 19 -60v-741q0 -35 -19 -60q-20 -28 -51 -28zM241 826q-14 0 -24 -15.5t-10 -36.5v-741q0 -20 10 -36t24 -16h541q13 0 22 14q12 15 12 38v741q0 21 -10 36.5t-24 15.5h-541
v0zM307 486h386v-37h-386v37zM307 350h386v-37h-386v37zM307 213h386v-37h-386v37zM478 725h31v-156h-31v156zM410 657h156v-31h-156v31z" />
    <glyph glyph-name="xinzengshoufeidan" unicode="&#xe6f3;" 
d="M843 220q17 0 17 17t-17 17h-102l99 99q3 4 3 7q0 7 -7 14t-13 7q-4 0 -7 -4l-92 -92l-93 92q-3 4 -6 4q-7 0 -14 -7t-7 -10q0 -7 4 -11l99 -99h-103q-17 0 -17 -17t17 -17h103v-68h-103q-17 0 -17 -17t17 -17h103v-109q0 -18 17 -18t17 18v109h102q17 0 17 17t-17 17
h-102v68h102zM529 422h-239q-17 0 -17 -20.5t17 -20.5h239q17 0 17 20.5t-17 20.5zM290 585h376q17 0 17 20.5t-17 20.5h-376q-17 0 -17 -20.5t17 -20.5zM478 217h-188q-17 0 -17 -20.5t17 -20.5h188q17 0 17 20.5t-17 20.5zM526 5h-284q-25 0 -43 18t-18 44v634q0 26 18 44
t43 18h560q26 0 44 -18t18 -44v-208q0 -7 6 -13.5t14 -6.5t14.5 6.5t6.5 13.5v208q0 44 -31 75t-72 31h-560q-41 0 -71.5 -31t-30.5 -75v-634q0 -44 31 -75t75 -31h280q7 0 13.5 6.5t6.5 13.5q3 10 -4.5 17t-15.5 7z" />
    <glyph glyph-name="xinzengbingli" unicode="&#xe6f4;" 
d="M474 49h-262q-24 0 -41 16.5t-17 42.5v587q0 23 16.5 40.5t41.5 17.5h518q24 0 41 -16.5t17 -41.5v-321q0 -8 6.5 -14.5t14.5 -6.5t14 6.5t6 14.5v321q0 40 -28 69.5t-67 29.5h-522q-39 0 -67.5 -29.5t-28.5 -69.5v-587q0 -41 29 -70t70 -29h259q8 0 14.5 6t6.5 14
t-6.5 14t-14.5 6zM635 620h-335q-7 0 -13.5 -6.5t-6.5 -14.5t6.5 -14t13.5 -6h335q8 0 14 6t6 14t-6 14.5t-14 6.5zM655 411q0 8 -6 14.5t-14 6.5h-335q-7 0 -13.5 -6.5t-6.5 -14t6.5 -14t13.5 -6.5h335q8 0 14 5.5t6 14.5zM850 162h-130v130q0 8 -6.5 14t-14 6t-14 -6
t-6.5 -14v-130h-129q-8 0 -14.5 -6.5t-6.5 -14t6.5 -14t14.5 -6.5h129v-130q0 -7 6.5 -13.5t14 -6.5t14 6.5t6.5 13.5v130h130q8 0 14 6.5t6 14t-6 14t-14 6.5zM300 237q-7 0 -13.5 -6.5t-6.5 -14t6.5 -14t13.5 -6.5h130q8 0 14.5 6.5t6.5 14t-6.5 14t-14.5 6.5h-130z" />
    <glyph glyph-name="dianhuahuifang" unicode="&#xe6f5;" 
d="M884 125l-143 112l-21 14q-10 10 -24 10q-10 4 -27 4h-3q-14 0 -24 -11q-7 -3 -21 -17l-51 -65q-5 -6 -24.5 -4.5t-40.5 15.5q-62 45 -109 91.5t-92 109.5q-22 35 -10 65v3l64 48q5 3 8.5 6.5t7 7.5t5.5 7l3 3q7 14 7 24v27q-2 4 -5 12.5t-5 11.5v3l-123 151l-24 20
q-10 7 -27 7t-28 -3h-3q-14 -7 -24 -18q-12 -11 -27 -37q-10 -17 -24 -51q-41 -123 7 -266.5t164 -259.5t259 -164t266 -7q34 14 52 24q3 3 17 12.5t20 15.5q7 6 14 20l3 3q7 21 7 28q0 13 -7 27q-3 7 -17 21zM864 67q0 -4 -7 -11q-10 -10 -31 -20q-27 -14 -44 -21
q-57 -17 -106 -17q-71 0 -133 24q-131 42 -242.5 154t-153.5 242q-49 130 -7 239q15 37 20 44q11 21 21 31q7 7 10 7q16 4 24 0h3l7 -7l127 -164l3 -7v-10q0 -1 -1.5 -4.5t-1.5 -5.5q-2 -1 -3 -3t-2 -3t-2 -1l-69 -51l-3 -3l-3 -4q-7 -9 -11.5 -21.5t-2.5 -40.5t20 -54
q28 -41 96 -116q55 -55 116 -96q26 -18 54 -20t40.5 2.5t21.5 11.5l7 6l51 69l4 3l10 7h10q2 0 3.5 -1.5t3.5 -1.5l160 -127q7 -7 7 -10q0 -2 2 -5t2 -5v-10zM959 712h-252l78 82q10 10 0 20t-20 0l-103 -102q-3 -4 -3 -10.5t3 -10.5l103 -102q3 -4 10 -4t10 4q10 10 0 20
l-78 79h252q5 0 9.5 4t4.5 9q0 11 -14 11z" />
    <glyph glyph-name="sanheng" unicode="&#xe714;" 
d="M102 691h820q21 0 36 -15t15 -36t-15 -36t-36 -15h-820q-21 0 -36 15t-15 36t15 36t36 15zM102 435h820q21 0 36 -15t15 -36t-15 -36t-36 -15h-820q-21 0 -36 15t-15 36t15 36t36 15zM102 179h820q21 0 36 -15t15 -36t-15 -36t-36 -15h-820q-21 0 -36 15t-15 36t15 36
t36 15z" />
    <glyph glyph-name="daochu2" unicode="&#xe715;" 
d="M920 252l-93 107q-8 9 -19.5 9t-19.5 -9t-8 -22.5t8 -22.5l45 -52h-196h-3h-219q-13 0 -22.5 -9.5t-9.5 -22.5v0q0 -14 9.5 -23t22.5 -9h219h1h198l-45 -53q-8 -9 -8 -22.5t8 -22.5t19.5 -9t19.5 9l93 107q8 9 8 22.5t-8 22.5zM636 88q0 -26 -12.5 -41t-36.5 -15h-358
q-27 0 -47.5 14t-20.5 38v598q0 25 15.5 39.5t40.5 14.5h240l-1 -175h176v-180h64v240l-169 180h-370q-25 0 -42.5 -18t-17.5 -42v-719q0 -24 17 -39t43 -15h478q26 0 45 14t19 38l1 67zM512 735l122 -122h-122v122z" />
    <glyph glyph-name="xiaodankuang-guanbi" unicode="&#xe716;" 
d="M878 -55l-366 366l-366 -366l-73 73l366 366l-366 366l73 73l366 -366l366 366l73 -73l-366 -366l366 -366z" />
    <glyph glyph-name="daoruhuanzhe-xiazaimoban" unicode="&#xe717;" 
d="M927 418h-392q-17 0 -23 -5.5t-6 -22.5q0 -13 8 -21t21 -8h392q12 0 23 12q6 5 6 17t-8 20t-21 8zM927 219h-392q-12 0 -23 -11q-6 -6 -6 -17q0 -13 8 -21t21 -8h392q12 0 23 12q6 5 6 17t-8 20t-21 8zM535 -37h392q12 0 23 11q6 6 6 17q0 13 -8 21t-21 8h-392
q-12 0 -23 -11q-6 -6 -6 -18t8 -20t21 -8zM68 771v-171q0 -24 17.5 -40.5t39.5 -16.5h768q25 0 41 17.5t16 39.5v171q0 24 -17 40.5t-40 16.5h-768q-21 0 -39 -18t-18 -39zM125 731q0 17 11.5 28.5t28.5 11.5h700q17 0 28.5 -11.5t11.5 -28.5v-102q0 -17 -11.5 -28.5
t-28.5 -11.5h-700q-17 4 -28.5 15.5t-11.5 24.5v102zM125 -60h245q24 0 40.5 17.5t16.5 39.5v387q0 25 -17.5 41t-39.5 16h-245q-24 0 -40.5 -17.5t-16.5 -39.5v-387q0 -21 18 -39t39 -18zM125 350q0 17 11.5 28.5t28.5 11.5h171q17 0 28 -11.5t11 -28.5v-319
q0 -17 -11 -28.5t-28 -11.5h-171q-17 0 -28.5 11.5t-11.5 28.5v319z" />
    <glyph glyph-name="daoruhuanzhe-shangchuanwendang" unicode="&#xe718;" 
d="M853 845h-682q-47 0 -66.5 -18.5t-19.5 -61.5v-768q0 -43 19.5 -61t66.5 -18h301q46 0 46 22q0 17 -12 23t-40 6h-301q-23 0 -23 17v779q0 12 9.5 20.5t19.5 8.5h682q13 0 21 -7t8 -16v-484q0 -21 -7.5 -27.5t-32.5 -6.5h-171q-47 0 -66 -16t-19 -58v-165q0 -54 34 -62
q26 -9 63 28l210 199q40 40 40 120v466q4 46 -14 63t-66 17zM643 168q0 9 8 16t20 7h171l-193 -177v154h-6zM267 378h490q22 0 30.5 6t8.5 23q0 16 -11 22t-34 6h-484q-22 0 -30.5 -6t-8.5 -22.5t8.5 -22.5t30.5 -6zM267 572h490q23 0 34 6t11 22t-11 22.5t-34 6.5h-490
q-22 0 -30.5 -6t-8.5 -22.5t8.5 -22.5t30.5 -6z" />
    <glyph glyph-name="caidanlan-tuichu" unicode="&#xe719;" 
d="M942 402l-326 325q-7 8 -18 8t-18.5 -7.5t-7.5 -18.5t8 -18l281 -281h-546h-2q-11 0 -18.5 -7.5t-7.5 -18.5t7.5 -18.5t18.5 -7.5h2h546l-281 -280q-8 -8 -8 -18.5t7.5 -18.5t18 -8t18.5 8l326 325q7 7 7 18t-7 18zM355 70v0h-196h-11.5t-8.5 1.5t-6.5 1.5t-4 2.5t-2.5 3
t-1.5 5.5t-0.5 6v8v9v562q0 22 6 25.5t33 3.5h192v0q11 1 18 8.5t7 17.5t-7 17.5t-18 8.5h-225v0q-23 0 -40 -17t-17 -40v-617q0 -24 17 -40.5t40 -16.5h225v0q11 0 18 7.5t7 17.5t-7 18t-18 8z" />
  </font>
</defs>
</svg>
